<svg width="242" height="150" viewBox="0 0 242 150" fill="none" xmlns="http://www.w3.org/2000/svg">
<path fill-rule="evenodd" clip-rule="evenodd" d="M5.0887 25.5942C0 35.6213 0 48.7475 0 75C0 101.252 0 114.379 5.0887 124.406C9.56485 133.226 16.7072 140.397 25.4921 144.891C35.4793 150 48.5532 150 74.701 150H167.299C193.447 150 206.521 150 216.508 144.891C225.293 140.397 232.435 133.226 236.911 124.406C242 114.379 242 101.252 242 75C242 48.7475 242 35.6213 236.911 25.5942C232.435 16.7741 225.293 9.60313 216.508 5.10907C206.521 0 193.447 0 167.299 0H74.701C48.5532 0 35.4793 0 25.4921 5.10907C16.7072 9.60313 9.56485 16.7741 5.0887 25.5942ZM74.5107 102.992C76.081 103.435 77.4332 104.499 78.1028 105.992L78.1031 105.993C79.1444 108.316 79.6651 109.477 79.7798 109.851C81.0593 114.023 78.9202 117.376 74.6328 117.92C74.2486 117.969 73.259 117.969 71.28 117.969C58.3141 117.969 51.8311 117.969 46.8788 115.418C42.5226 113.175 38.9809 109.595 36.7613 105.192C34.2379 100.186 34.2379 93.6332 34.2379 80.5276V69.4724C34.2379 56.3668 34.2379 49.814 36.7613 44.8083C38.9809 40.4051 42.5226 36.8253 46.8788 34.5818C51.8311 32.0312 58.3141 32.0312 71.28 32.0312C73.2592 32.0312 74.2488 32.0312 74.6331 32.08C78.9204 32.6239 81.0594 35.9773 79.78 40.1489C79.6653 40.5228 79.1443 41.685 78.1029 44.0079C77.4333 45.5013 76.0813 46.5646 74.5111 47.0084C65.3772 49.5897 58.4585 57.3483 57.0591 66.967C56.8039 68.7211 56.8039 70.814 56.8039 75C56.8039 79.186 56.8039 81.2789 57.0591 83.033C58.4585 92.6515 65.377 100.41 74.5107 102.992ZM163.897 105.992C164.567 104.499 165.919 103.435 167.489 102.992C176.623 100.41 183.542 92.6515 184.941 83.033C185.196 81.2789 185.196 79.186 185.196 75C185.196 70.814 185.196 68.7211 184.941 66.967C183.542 57.3483 176.623 49.5897 167.489 47.0084C165.919 46.5646 164.567 45.5013 163.897 44.0079C162.856 41.6846 162.335 40.5229 162.22 40.1489C160.941 35.9773 163.08 32.6239 167.367 32.08C167.751 32.0312 168.741 32.0312 170.72 32.0312C183.686 32.0312 190.169 32.0312 195.121 34.5818C199.477 36.8253 203.019 40.4051 205.239 44.8083C207.762 49.814 207.762 56.3668 207.762 69.4724V80.5276C207.762 93.6332 207.762 100.186 205.239 105.192C203.019 109.595 199.477 113.175 195.121 115.418C190.169 117.969 183.686 117.969 170.72 117.969C168.741 117.969 167.751 117.969 167.367 117.92C163.08 117.376 160.941 114.023 162.22 109.851C162.335 109.477 162.855 108.317 163.896 105.996L163.897 105.993L163.897 105.992Z" fill="#39C4FF"/>
</svg>
